{
    "asset" : {
        "generator" : "Khronos glTF Blender I/O v3.4.49",
        "version" : "2.0"
    },
    "extensionsUsed" : [
        "KHR_materials_specular",
        "KHR_materials_ior",
        "KHR_materials_transmission"
    ],
    "scene" : 0,
    "scenes" : [
        {
            "name" : "Scene",
            "nodes" : [
                7,
                8,
                9,
                10
            ]
        }
    ],
    "nodes" : [
        {
            "mesh" : 0,
            "name" : "Bolt 1",
            "scale" : [
                10.000000953674316,
                10,
                10
            ]
        },
        {
            "mesh" : 1,
            "name" : "Bolt 2",
            "scale" : [
                10.000000953674316,
                10,
                10
            ]
        },
        {
            "mesh" : 2,
            "name" : "Bottom",
            "scale" : [
                10.000000953674316,
                10,
                10
            ]
        },
        {
            "mesh" : 3,
            "name" : "Button",
            "scale" : [
                10.000000953674316,
                10,
                10
            ]
        },
        {
            "mesh" : 4,
            "name" : "Knob",
            "scale" : [
                10.000000953674316,
                10,
                10
            ]
        },
        {
            "mesh" : 5,
            "name" : "Lidar Lens",
            "scale" : [
                10.000000953674316,
                10,
                10
            ]
        },
        {
            "mesh" : 6,
            "name" : "Top",
            "scale" : [
                10.000000953674316,
                10,
                10
            ]
        },
        {
            "children" : [
                0,
                1,
                2,
                3,
                4,
                5,
                6
            ],
            "name" : "Device v6",
            "rotation" : [
                0.6816496253013611,
                -0.5593405365943909,
                -0.18802613019943237,
                0.4325946271419525
            ],
            "scale" : [
                0.05000000074505806,
                0.05000000074505806,
                0.05000000074505806
            ]
        },
        {
            "mesh" : 7,
            "name" : "Backdrop",
            "scale" : [
                3.01973295211792,
                3.01973295211792,
                5.880342960357666
            ],
            "translation" : [
                0,
                -0.20755797624588013,
                0
            ]
        },
        {
            "mesh" : 8,
            "name" : "Plane",
            "rotation" : [
                0.25636616349220276,
                0,
                0,
                0.9665797352790833
            ],
            "scale" : [
                4.774420738220215,
                4.774420738220215,
                4.774420738220215
            ],
            "translation" : [
                1.5161954164505005,
                9.207635879516602,
                6.758615970611572
            ]
        },
        {
            "mesh" : 9,
            "name" : "Plane.001",
            "rotation" : [
                -0.8232742547988892,
                0,
                0,
                0.5676438212394714
            ],
            "scale" : [
                2.935831069946289,
                2.935831069946289,
                2.935831069946289
            ],
            "translation" : [
                0,
                0,
                -8.367586135864258
            ]
        }
    ],
    "materials" : [
        {
            "doubleSided" : true,
            "extensions" : {
                "KHR_materials_specular" : {
                    "specularColorFactor" : [
                        2.371357614441398,
                        2.371357614441398,
                        2.371357614441398
                    ]
                },
                "KHR_materials_ior" : {
                    "ior" : 1.4500000476837158
                }
            },
            "name" : "Steel - Satin",
            "pbrMetallicRoughness" : {
                "baseColorFactor" : [
                    0.6274510025978088,
                    0.6274510025978088,
                    0.6274510025978088,
                    1
                ],
                "roughnessFactor" : 0.5527864098548889
            }
        },
        {
            "doubleSided" : true,
            "name" : "Knob",
            "pbrMetallicRoughness" : {
                "baseColorFactor" : [
                    0.8000000715255737,
                    0.7335776686668396,
                    0.6664173007011414,
                    1
                ],
                "metallicFactor" : 0,
                "roughnessFactor" : 0.1818181872367859
            }
        },
        {
            "doubleSided" : true,
            "extensions" : {
                "KHR_materials_transmission" : {
                    "transmissionFactor" : 1
                },
                "KHR_materials_ior" : {
                    "ior" : 1.4500000476837158
                }
            },
            "name" : "Lens",
            "pbrMetallicRoughness" : {
                "baseColorFactor" : [
                    0.02143612504005432,
                    0.02143612504005432,
                    0.02143612504005432,
                    1
                ],
                "roughnessFactor" : 0
            }
        },
        {
            "doubleSided" : true,
            "name" : "Backdrop",
            "pbrMetallicRoughness" : {
                "baseColorFactor" : [
                    0,
                    0,
                    0,
                    1
                ],
                "metallicFactor" : 0,
                "roughnessFactor" : 0.5
            }
        }
    ],
    "meshes" : [
        {
            "name" : "Bolt 1",
            "primitives" : [
                {
                    "attributes" : {
                        "POSITION" : 0,
                        "TEXCOORD_0" : 1,
                        "NORMAL" : 2
                    },
                    "indices" : 3,
                    "material" : 0
                }
            ]
        },
        {
            "name" : "Bolt 2",
            "primitives" : [
                {
                    "attributes" : {
                        "POSITION" : 4,
                        "TEXCOORD_0" : 5,
                        "NORMAL" : 6
                    },
                    "indices" : 7,
                    "material" : 0
                }
            ]
        },
        {
            "name" : "Bottom",
            "primitives" : [
                {
                    "attributes" : {
                        "POSITION" : 8,
                        "TEXCOORD_0" : 9,
                        "NORMAL" : 10
                    },
                    "indices" : 11,
                    "material" : 0
                }
            ]
        },
        {
            "name" : "Button",
            "primitives" : [
                {
                    "attributes" : {
                        "POSITION" : 12,
                        "TEXCOORD_0" : 13,
                        "NORMAL" : 14
                    },
                    "indices" : 15,
                    "material" : 0
                }
            ]
        },
        {
            "name" : "Knob",
            "primitives" : [
                {
                    "attributes" : {
                        "POSITION" : 16,
                        "TEXCOORD_0" : 17,
                        "NORMAL" : 18
                    },
                    "indices" : 19,
                    "material" : 1
                }
            ]
        },
        {
            "name" : "Lidar Lens",
            "primitives" : [
                {
                    "attributes" : {
                        "POSITION" : 20,
                        "TEXCOORD_0" : 21,
                        "NORMAL" : 22
                    },
                    "indices" : 23,
                    "material" : 2
                }
            ]
        },
        {
            "name" : "Top",
            "primitives" : [
                {
                    "attributes" : {
                        "POSITION" : 24,
                        "TEXCOORD_0" : 25,
                        "NORMAL" : 26
                    },
                    "indices" : 27,
                    "material" : 0
                }
            ]
        },
        {
            "name" : "Cube.001",
            "primitives" : [
                {
                    "attributes" : {
                        "POSITION" : 28,
                        "TEXCOORD_0" : 29,
                        "NORMAL" : 30
                    },
                    "indices" : 31,
                    "material" : 3
                }
            ]
        },
        {
            "name" : "Plane",
            "primitives" : [
                {
                    "attributes" : {
                        "POSITION" : 32,
                        "TEXCOORD_0" : 33,
                        "NORMAL" : 34
                    },
                    "indices" : 35
                }
            ]
        },
        {
            "name" : "Plane.001",
            "primitives" : [
                {
                    "attributes" : {
                        "POSITION" : 36,
                        "TEXCOORD_0" : 37,
                        "NORMAL" : 38
                    },
                    "indices" : 35
                }
            ]
        }
    ],
    "accessors" : [
        {
            "bufferView" : 0,
            "componentType" : 5126,
            "count" : 6547,
            "max" : [
                -1.3141449689865112,
                -0.11415224522352219,
                0.800000011920929
            ],
            "min" : [
                -1.6858550310134888,
                -0.4858477711677551,
                0.3499999940395355
            ],
            "type" : "VEC3"
        },
        {
            "bufferView" : 1,
            "componentType" : 5126,
            "count" : 6547,
            "type" : "VEC2"
        },
        {
            "bufferView" : 2,
            "componentType" : 5126,
            "count" : 6547,
            "type" : "VEC3"
        },
        {
            "bufferView" : 3,
            "componentType" : 5123,
            "count" : 27744,
            "type" : "SCALAR"
        },
        {
            "bufferView" : 4,
            "componentType" : 5126,
            "count" : 6547,
            "max" : [
                1.6858550310134888,
                -0.11415224522352219,
                0.800000011920929
            ],
            "min" : [
                1.3141449689865112,
                -0.4858477711677551,
                0.3499999940395355
            ],
            "type" : "VEC3"
        },
        {
            "bufferView" : 5,
            "componentType" : 5126,
            "count" : 6547,
            "type" : "VEC2"
        },
        {
            "bufferView" : 6,
            "componentType" : 5126,
            "count" : 6547,
            "type" : "VEC3"
        },
        {
            "bufferView" : 7,
            "componentType" : 5123,
            "count" : 27744,
            "type" : "SCALAR"
        },
        {
            "bufferView" : 8,
            "componentType" : 5126,
            "count" : 4708,
            "max" : [
                2.5,
                1.5,
                0.800000011920929
            ],
            "min" : [
                -2.5,
                -1.5,
                0.4000000059604645
            ],
            "type" : "VEC3"
        },
        {
            "bufferView" : 9,
            "componentType" : 5126,
            "count" : 4708,
            "type" : "VEC2"
        },
        {
            "bufferView" : 10,
            "componentType" : 5126,
            "count" : 4708,
            "type" : "VEC3"
        },
        {
            "bufferView" : 11,
            "componentType" : 5123,
            "count" : 17652,
            "type" : "SCALAR"
        },
        {
            "bufferView" : 12,
            "componentType" : 5126,
            "count" : 314,
            "max" : [
                -0.20000000298023224,
                -1.4500000476837158,
                0.6000000238418579
            ],
            "min" : [
                -1.8000000715255737,
                -1.524999976158142,
                0.20000000298023224
            ],
            "type" : "VEC3"
        },
        {
            "bufferView" : 13,
            "componentType" : 5126,
            "count" : 314,
            "type" : "VEC2"
        },
        {
            "bufferView" : 14,
            "componentType" : 5126,
            "count" : 314,
            "type" : "VEC3"
        },
        {
            "bufferView" : 15,
            "componentType" : 5123,
            "count" : 1032,
            "type" : "SCALAR"
        },
        {
            "bufferView" : 16,
            "componentType" : 5126,
            "count" : 1928,
            "max" : [
                1.649999976158142,
                -0.3500000238418579,
                0.10000000149011612
            ],
            "min" : [
                0.8500000238418579,
                -1.149999976158142,
                -0.02500000037252903
            ],
            "type" : "VEC3"
        },
        {
            "bufferView" : 17,
            "componentType" : 5126,
            "count" : 1928,
            "type" : "VEC2"
        },
        {
            "bufferView" : 18,
            "componentType" : 5126,
            "count" : 1928,
            "type" : "VEC3"
        },
        {
            "bufferView" : 19,
            "componentType" : 5123,
            "count" : 8220,
            "type" : "SCALAR"
        },
        {
            "bufferView" : 20,
            "componentType" : 5126,
            "count" : 286,
            "max" : [
                -2.9802322831784522e-09,
                -0.550000011920929,
                0.10000000149011612
            ],
            "min" : [
                -2,
                -0.949999988079071,
                0
            ],
            "type" : "VEC3"
        },
        {
            "bufferView" : 21,
            "componentType" : 5126,
            "count" : 286,
            "type" : "VEC2"
        },
        {
            "bufferView" : 22,
            "componentType" : 5126,
            "count" : 286,
            "type" : "VEC3"
        },
        {
            "bufferView" : 23,
            "componentType" : 5123,
            "count" : 996,
            "type" : "SCALAR"
        },
        {
            "bufferView" : 24,
            "componentType" : 5126,
            "count" : 7276,
            "max" : [
                2.5,
                1.5,
                0.4000000059604645
            ],
            "min" : [
                -2.5,
                -1.5,
                -8.413408858487514e-17
            ],
            "type" : "VEC3"
        },
        {
            "bufferView" : 25,
            "componentType" : 5126,
            "count" : 7276,
            "type" : "VEC2"
        },
        {
            "bufferView" : 26,
            "componentType" : 5126,
            "count" : 7276,
            "type" : "VEC3"
        },
        {
            "bufferView" : 27,
            "componentType" : 5123,
            "count" : 26040,
            "type" : "SCALAR"
        },
        {
            "bufferView" : 28,
            "componentType" : 5126,
            "count" : 208,
            "max" : [
                1,
                2.0485010147094727,
                1
            ],
            "min" : [
                -1,
                -1,
                -1
            ],
            "type" : "VEC3"
        },
        {
            "bufferView" : 29,
            "componentType" : 5126,
            "count" : 208,
            "type" : "VEC2"
        },
        {
            "bufferView" : 30,
            "componentType" : 5126,
            "count" : 208,
            "type" : "VEC3"
        },
        {
            "bufferView" : 31,
            "componentType" : 5123,
            "count" : 312,
            "type" : "SCALAR"
        },
        {
            "bufferView" : 32,
            "componentType" : 5126,
            "count" : 4,
            "max" : [
                1,
                0,
                1
            ],
            "min" : [
                -1,
                0,
                -1
            ],
            "type" : "VEC3"
        },
        {
            "bufferView" : 33,
            "componentType" : 5126,
            "count" : 4,
            "type" : "VEC2"
        },
        {
            "bufferView" : 34,
            "componentType" : 5126,
            "count" : 4,
            "type" : "VEC3"
        },
        {
            "bufferView" : 35,
            "componentType" : 5123,
            "count" : 6,
            "type" : "SCALAR"
        },
        {
            "bufferView" : 36,
            "componentType" : 5126,
            "count" : 4,
            "max" : [
                1,
                0,
                1
            ],
            "min" : [
                -1,
                0,
                -1
            ],
            "type" : "VEC3"
        },
        {
            "bufferView" : 37,
            "componentType" : 5126,
            "count" : 4,
            "type" : "VEC2"
        },
        {
            "bufferView" : 38,
            "componentType" : 5126,
            "count" : 4,
            "type" : "VEC3"
        }
    ],
    "bufferViews" : [
        {
            "buffer" : 0,
            "byteLength" : 78564,
            "byteOffset" : 0,
            "target" : 34962
        },
        {
            "buffer" : 0,
            "byteLength" : 52376,
            "byteOffset" : 78564,
            "target" : 34962
        },
        {
            "buffer" : 0,
            "byteLength" : 78564,
            "byteOffset" : 130940,
            "target" : 34962
        },
        {
            "buffer" : 0,
            "byteLength" : 55488,
            "byteOffset" : 209504,
            "target" : 34963
        },
        {
            "buffer" : 0,
            "byteLength" : 78564,
            "byteOffset" : 264992,
            "target" : 34962
        },
        {
            "buffer" : 0,
            "byteLength" : 52376,
            "byteOffset" : 343556,
            "target" : 34962
        },
        {
            "buffer" : 0,
            "byteLength" : 78564,
            "byteOffset" : 395932,
            "target" : 34962
        },
        {
            "buffer" : 0,
            "byteLength" : 55488,
            "byteOffset" : 474496,
            "target" : 34963
        },
        {
            "buffer" : 0,
            "byteLength" : 56496,
            "byteOffset" : 529984,
            "target" : 34962
        },
        {
            "buffer" : 0,
            "byteLength" : 37664,
            "byteOffset" : 586480,
            "target" : 34962
        },
        {
            "buffer" : 0,
            "byteLength" : 56496,
            "byteOffset" : 624144,
            "target" : 34962
        },
        {
            "buffer" : 0,
            "byteLength" : 35304,
            "byteOffset" : 680640,
            "target" : 34963
        },
        {
            "buffer" : 0,
            "byteLength" : 3768,
            "byteOffset" : 715944,
            "target" : 34962
        },
        {
            "buffer" : 0,
            "byteLength" : 2512,
            "byteOffset" : 719712,
            "target" : 34962
        },
        {
            "buffer" : 0,
            "byteLength" : 3768,
            "byteOffset" : 722224,
            "target" : 34962
        },
        {
            "buffer" : 0,
            "byteLength" : 2064,
            "byteOffset" : 725992,
            "target" : 34963
        },
        {
            "buffer" : 0,
            "byteLength" : 23136,
            "byteOffset" : 728056,
            "target" : 34962
        },
        {
            "buffer" : 0,
            "byteLength" : 15424,
            "byteOffset" : 751192,
            "target" : 34962
        },
        {
            "buffer" : 0,
            "byteLength" : 23136,
            "byteOffset" : 766616,
            "target" : 34962
        },
        {
            "buffer" : 0,
            "byteLength" : 16440,
            "byteOffset" : 789752,
            "target" : 34963
        },
        {
            "buffer" : 0,
            "byteLength" : 3432,
            "byteOffset" : 806192,
            "target" : 34962
        },
        {
            "buffer" : 0,
            "byteLength" : 2288,
            "byteOffset" : 809624,
            "target" : 34962
        },
        {
            "buffer" : 0,
            "byteLength" : 3432,
            "byteOffset" : 811912,
            "target" : 34962
        },
        {
            "buffer" : 0,
            "byteLength" : 1992,
            "byteOffset" : 815344,
            "target" : 34963
        },
        {
            "buffer" : 0,
            "byteLength" : 87312,
            "byteOffset" : 817336,
            "target" : 34962
        },
        {
            "buffer" : 0,
            "byteLength" : 58208,
            "byteOffset" : 904648,
            "target" : 34962
        },
        {
            "buffer" : 0,
            "byteLength" : 87312,
            "byteOffset" : 962856,
            "target" : 34962
        },
        {
            "buffer" : 0,
            "byteLength" : 52080,
            "byteOffset" : 1050168,
            "target" : 34963
        },
        {
            "buffer" : 0,
            "byteLength" : 2496,
            "byteOffset" : 1102248,
            "target" : 34962
        },
        {
            "buffer" : 0,
            "byteLength" : 1664,
            "byteOffset" : 1104744,
            "target" : 34962
        },
        {
            "buffer" : 0,
            "byteLength" : 2496,
            "byteOffset" : 1106408,
            "target" : 34962
        },
        {
            "buffer" : 0,
            "byteLength" : 624,
            "byteOffset" : 1108904,
            "target" : 34963
        },
        {
            "buffer" : 0,
            "byteLength" : 48,
            "byteOffset" : 1109528,
            "target" : 34962
        },
        {
            "buffer" : 0,
            "byteLength" : 32,
            "byteOffset" : 1109576,
            "target" : 34962
        },
        {
            "buffer" : 0,
            "byteLength" : 48,
            "byteOffset" : 1109608,
            "target" : 34962
        },
        {
            "buffer" : 0,
            "byteLength" : 12,
            "byteOffset" : 1109656,
            "target" : 34963
        },
        {
            "buffer" : 0,
            "byteLength" : 48,
            "byteOffset" : 1109668,
            "target" : 34962
        },
        {
            "buffer" : 0,
            "byteLength" : 32,
            "byteOffset" : 1109716,
            "target" : 34962
        },
        {
            "buffer" : 0,
            "byteLength" : 48,
            "byteOffset" : 1109748,
            "target" : 34962
        }
    ],
    "buffers" : [
        {
            "byteLength" : 1109796,
            "uri" : "data:application/octet-stream;base64,"
        }
    ]
}
